<?xml version="1.0" encoding="utf-8"?>
<!-- Generator: Adobe Illustrator 24.1.2, SVG Export Plug-In . SVG Version: 6.00 Build 0)  -->
<svg version="1.1" id="Layer_1" xmlns="http://www.w3.org/2000/svg" xmlns:xlink="http://www.w3.org/1999/xlink" x="0px" y="0px"
	 viewBox="0 0 512 512" style="enable-background:new 0 0 512 512;" xml:space="preserve">
<style type="text/css">
	.st0{fill:#F3C74F;}
	.st1{fill:#0081C6;}
	.st2{opacity:0.2;enable-background:new    ;}
	.st3{fill:#40BAB3;}
	.st4{fill:#F0B0B7;}
	.st5{fill:#FFFFFF;}
	.st6{fill:#A0C6E6;}
	.st7{fill:#394049;}
	.st8{fill:#5F666F;}
	.st9{opacity:0.2;fill:#FFFFFF;enable-background:new    ;}
</style>
<path class="st0" d="M383.7,274.4c-10.2,0-19.4-7.1-21.7-17.5c-2.7-12,4.9-23.9,16.9-26.6c37.1-8.2,69.4-20.9,89.4-92.4
	c3.3-11.9,15.6-18.8,27.5-15.5c11.9,3.3,18.8,15.6,15.5,27.5c-11.6,41.7-28.7,71.7-52.3,91.9c-22.7,19.5-48.3,27.1-70.4,32
	C386.9,274.2,385.3,274.4,383.7,274.4z"/>
<circle class="st1" cx="328" cy="87.2" r="51.2"/>
<g>
	<circle class="st0" cx="328" cy="87.2" r="23.9"/>
	<path class="st0" d="M314.1,493.1c-12.3,0-22.3-10-22.3-22.3v-92.2c0-12.3,10-22.3,22.3-22.3s22.3,10,22.3,22.3v92.2
		C336.4,483.1,326.4,493.1,314.1,493.1z"/>
</g>
<path class="st2" d="M314.1,356.3c-12.3,0-22.3,10-22.3,22.3v46.3c16.3-5.2,31.3-12.8,44.6-22.3v-24
	C336.4,366.3,326.4,356.3,314.1,356.3z"/>
<path class="st0" d="M218.2,493.1c-12.3,0-22.3-10-22.3-22.3v-84.4c0-12.3,10-22.3,22.3-22.3c12.3,0,22.3,10,22.3,22.3v84.4
	C240.5,483.1,230.5,493.1,218.2,493.1z"/>
<path class="st2" d="M218.2,364.1c-12.3,0-22.3,10-22.3,22.3v39.3c14.3,4.3,29.3,6.7,44.6,6.9v-46.2
	C240.5,374.1,230.5,364.1,218.2,364.1z"/>
<path class="st3" d="M398.8,214.1C377,128.3,274,22.7,189.7,44.1C105.3,65.5,65.1,207.3,86.8,293.2s109.3,137.8,195.4,116
	C368.4,387.4,420.6,300,398.8,214.1z"/>
<g>
	<path class="st4" d="M159.2,255.3c-3.7,0-7.1-2.5-8-6.2c-1.1-4.4,1.6-8.9,6-10l26-6.6c4.4-1.1,8.9,1.6,10,6c1.1,4.4-1.6,8.9-6,10
		l-26,6.6C160.5,255.3,159.9,255.3,159.2,255.3z"/>
	<path class="st4" d="M341.2,209.2c-3.7,0-7.1-2.5-8-6.2c-1.1-4.4,1.6-8.9,6-10l26-6.6c4.4-1.1,8.9,1.6,10,6c1.1,4.4-1.6,8.9-6,10
		l-26,6.6C342.5,209.1,341.8,209.2,341.2,209.2z"/>
</g>
<path class="st5" d="M96.7,321.1c31.8,68.9,109.2,107.5,185.6,88.1c76.4-19.4,126-90.2,121.2-165.9L96.7,321.1z"/>
<path class="st1" d="M140.4,377.6c38.2,31.3,90.2,44.7,141.8,31.6c51.6-13.1,91-49.7,109.6-95.4L140.4,377.6z"/>
<path class="st2" d="M294.6,388.5c-86.1,21.8-173.6-30.1-195.4-116C86.1,220.8,95.4,148.8,123.4,95C86,149.7,71.9,234.5,86.8,293.2
	c21.8,85.9,109.3,137.8,195.4,116c47.4-12,84.5-43.8,104.6-84.3C365.5,355.4,333.5,378.6,294.6,388.5z"/>
<path class="st6" d="M421,53.1c-1.8,0-3.6-0.6-5.1-1.8l-22.3-17.7c-3.6-2.8-4.2-8-1.3-11.6c2.8-3.6,8-4.2,11.6-1.3l22.3,17.7
	c3.6,2.8,4.2,8,1.3,11.6C425.8,52,423.4,53.1,421,53.1z"/>
<path class="st1" d="M403.7,166.6c-2.3,0-4.6-1-6.2-2.9c-3-3.4-2.6-8.7,0.8-11.7l12.2-10.6c3.4-3,8.7-2.6,11.7,0.8
	c3,3.4,2.6,8.7-0.8,11.6l-12.2,10.6C407.6,165.9,405.7,166.6,403.7,166.6z"/>
<path class="st0" d="M394.7,126.6c-3.6,0-7-2.4-8-6.1c-1.2-4.4,1.4-8.9,5.8-10.1l13.4-3.6c4.4-1.2,8.9,1.4,10.1,5.8
	c1.2,4.4-1.4,8.9-5.8,10.1l-13.4,3.6C396.1,126.5,395.4,126.6,394.7,126.6z"/>
<g>
	<path class="st7" d="M163.6,218.1c-3.7,0-7.1-2.5-8-6.2l-1.1-4.3c-1.1-4.4,1.6-8.9,6-10c4.4-1.1,8.9,1.6,10,6l1.1,4.3
		c1.1,4.4-1.6,8.9-6,10C165,218,164.3,218.1,163.6,218.1z"/>
	<path class="st7" d="M345.6,172c-3.7,0-7.1-2.5-8-6.2l-1.1-4.3c-1.1-4.4,1.6-8.9,6-10c4.4-1.1,8.9,1.6,10,6l1.1,4.3
		c1.1,4.4-1.6,8.9-6,10C346.9,171.9,346.3,172,345.6,172z"/>
	<path class="st7" d="M241,221.3c-4.3,0-8.5-1.1-12.2-3.4c-5.5-3.3-9.4-8.5-11-14.7c-1.1-4.4,1.6-8.9,6-10c4.4-1.1,8.9,1.6,10,6
		c0.5,1.9,1.7,3.6,3.4,4.6c1.7,1,3.7,1.3,5.7,0.8c4-1,6.4-5.1,5.4-9.1c-0.2-0.7-0.3-1.4-0.3-2c0-3.7,2.5-7,6.2-8
		c4.4-1.1,8.9,1.6,10,6c0.5,1.9,1.7,3.6,3.4,4.6c1.7,1,3.7,1.3,5.7,0.8c4-1,6.4-5.1,5.4-9.1c-1.1-4.4,1.6-8.9,6-10
		c4.4-1.1,8.9,1.6,10,6c3.3,12.8-4.5,25.9-17.4,29.2c-5.7,1.4-11.6,0.8-16.7-1.8c-3.2,4.6-8,8.1-13.8,9.6
		C244.9,221.1,243,221.3,241,221.3z"/>
</g>
<path class="st1" d="M137.6,133.8c0.3,1,0.4,2.1,0.4,3.1c-0.1,13.7-3.5,24-9.9,34.8c-6.4,10.8-13.5,18.3-25.6,25
	c-1,0.6-2.1,1-3.3,1.3c-27.5,6-55-11.4-61-39.4c-5.5-26,10.1-52.3,35.6-59.8C101.3,90.7,129.8,106.7,137.6,133.8z"/>
<circle class="st0" cx="88.3" cy="147.9" r="23.9"/>
<path class="st2" d="M111.3,181.9c-1,0.6-2.1,1-3.3,1.3c-27.5,6-55-11.4-61-39.4c-2.1-10-1.1-20,2.4-29
	c-10,11.8-14.6,27.9-11.2,43.8c6,28,33.5,45.4,61,39.4c1.2-0.2,2.3-0.7,3.3-1.3c12.1-6.7,19.1-14.2,25.6-25c1.5-2.5,2.9-5.1,4-7.6
	C126.7,171.3,120.5,176.8,111.3,181.9z"/>
<path class="st0" d="M104,344.9c-24.1,0-46.9-8.5-65.2-24.6C15.2,299.7,1.4,268.6,0,232.9c-0.5-12.3,9.1-22.7,21.4-23.1
	c12.3-0.5,22.7,9.1,23.1,21.4c0.9,23.3,9.3,43,23.6,55.6c11.4,10,26.1,14.7,41.4,13.3c12.3-1.2,23.1,7.8,24.3,20.1
	s-7.8,23.1-20.1,24.3C110.5,344.8,107.2,344.9,104,344.9z"/>
<path class="st8" d="M496.2,153.7l-49.5,8.7c-3.6,0.6-7-1.8-7.6-5.4L424.6,74c-0.6-3.6,1.8-7,5.4-7.6l49.5-8.7
	c3.6-0.6,7,1.8,7.6,5.4l14.5,83.1C502.2,149.7,499.8,153.1,496.2,153.7z"/>
<circle class="st5" cx="468.5" cy="80.7" r="8.3"/>
<rect x="434.8" y="121.1" transform="matrix(0.985 -0.1725 0.1725 0.985 -15.3205 82.4036)" class="st7" width="63.4" height="16.5"/>
<path class="st2" d="M500.7,147.3l-49.5,8.7c-3.6,0.6-7-1.8-7.6-5.4l-14.5-83.1c-0.1-0.3-0.1-0.7-0.1-1c-3,1-5,4.1-4.4,7.4
	l14.5,83.1c0.6,3.6,4,6,7.6,5.4l49.5-8.7c3.3-0.6,5.5-3.4,5.4-6.6C501.4,147.2,501,147.3,500.7,147.3z"/>
<path class="st9" d="M479.4,57.7l-17.1,3c-0.9,2.9-1.2,6.1-0.6,9.3c1.9,10.6,12,17.8,22.6,15.9c2.3-0.4,4.4-1.2,6.3-2.3L487,63
	C486.4,59.4,483,57,479.4,57.7z"/>
</svg>
